<svg xmlns="http://www.w3.org/2000/svg" width="1440" height="900" viewBox="0 0 1440 900" role="img" aria-labelledby="title desc">
  <title id="title">oLooper library preview</title>
  <desc id="desc">Dark library view with looper collections, favorites, searchable track list, BPM, and favorite controls.</desc>
  <rect width="1440" height="900" rx="24" fill="#08090b"/>
  <rect x="20" y="20" width="1400" height="860" rx="18" fill="#15171b" stroke="#34373d"/>
  <rect x="20" y="20" width="1400" height="54" rx="18" fill="#1b1d22"/><path d="M20 56h1400v18H20z" fill="#1b1d22"/>
  <circle cx="48" cy="47" r="6" fill="#fb7185"/><circle cx="70" cy="47" r="6" fill="#fbbf24"/><circle cx="92" cy="47" r="6" fill="#4ade80"/>
  <circle cx="132" cy="47" r="14" fill="#f59e0b"/><path d="M125 47c4-10 10 10 14 0" fill="none" stroke="#17191e" stroke-width="2.5" stroke-linecap="round"/>
  <text x="158" y="53" fill="#f3f4f6" font-family="Inter,Arial,sans-serif" font-size="17" font-weight="700">oLooper</text>
  <rect x="20" y="74" width="1400" height="76" fill="#17191e"/>
  <text x="48" y="105" fill="#a3a6ad" font-family="Inter,Arial,sans-serif" font-size="12" letter-spacing="1.3">YOUR PRACTICE LIBRARY</text>
  <text x="48" y="132" fill="#f3f4f6" font-family="Inter,Arial,sans-serif" font-size="18" font-weight="700">Find the right break. Keep it in rotation.</text>
  <rect x="1090" y="91" width="278" height="40" rx="8" fill="#25282e" stroke="#3a3d44"/><circle cx="1110" cy="110" r="6" fill="none" stroke="#92969e" stroke-width="1.5"/><path d="m1114 114 5 5" stroke="#92969e" stroke-width="1.5"/><text x="1132" y="115" fill="#9397a0" font-family="Inter,Arial,sans-serif" font-size="12">Search loopers and tracks…</text>
  <rect x="20" y="150" width="1400" height="52" fill="#1d2026"/>
  <rect x="48" y="160" width="134" height="32" rx="7" fill="#f59e0b"/><text x="115" y="181" text-anchor="middle" fill="#17191e" font-family="Inter,Arial,sans-serif" font-size="12" font-weight="700">MY LIBRARY</text>
  <rect x="190" y="160" width="193" height="32" rx="7" fill="#292c32"/><text x="286" y="181" text-anchor="middle" fill="#c2c4c9" font-family="Inter,Arial,sans-serif" font-size="12">DOWNLOAD LOOPERS</text>
  <rect x="20" y="202" width="1400" height="48" fill="#17191e" stroke="#30333a"/>
  <text x="48" y="232" fill="#f3f4f6" font-family="Inter,Arial,sans-serif" font-size="12" font-weight="700">LOCAL LOOPERS</text>
  <text x="244" y="232" fill="#9ca0a8" font-family="Inter,Arial,sans-serif" font-size="11">Browse, favorite, and organize your practice material</text>
  <rect x="20" y="250" width="380" height="630" fill="#191b20"/>
  <path d="M399 250v630" stroke="#363940"/>
  <text x="50" y="291" fill="#9ca0a8" font-family="Inter,Arial,sans-serif" font-size="11" letter-spacing="1.2">COLLECTIONS</text>
  <rect x="40" y="310" width="340" height="48" rx="8" fill="#322717" stroke="#755018"/>
  <path d="M62 335c0-7 10-7 10 0 0-7 10-7 10 0 0 7-10 12-10 12s-10-5-10-12" fill="#f59e0b"/>
  <text x="98" y="339" fill="#fbbf24" font-family="Inter,Arial,sans-serif" font-size="13" font-weight="700">Favorites</text><text x="351" y="339" text-anchor="end" fill="#c2a162" font-family="Inter,Arial,sans-serif" font-size="11">12</text>
  <g font-family="Inter,Arial,sans-serif">
    <rect x="40" y="373" width="340" height="62" rx="8" fill="#24262c"/><rect x="52" y="384" width="40" height="40" rx="6" fill="#3a2c23"/><path d="M58 404h28m-22-6v12m8-17v22m8-12v7" stroke="#f59e0b" stroke-width="2" stroke-linecap="round"/><text x="108" y="399" fill="#f1f1f2" font-size="12" font-weight="600">Scratch Session Vol. 2</text><text x="108" y="419" fill="#92969e" font-size="10">8 loops · Custom collection</text>
    <rect x="40" y="447" width="340" height="62" rx="8" fill="#24262c"/><rect x="52" y="458" width="40" height="40" rx="6" fill="#25353b"/><path d="M58 481h28m-22-6v12m8-17v22m8-12v7" stroke="#67c9cc" stroke-width="2" stroke-linecap="round"/><text x="108" y="473" fill="#f1f1f2" font-size="12" font-weight="600">Portablist Practice Pack</text><text x="108" y="493" fill="#92969e" font-size="10">16 loops · SWF</text>
    <rect x="40" y="521" width="340" height="62" rx="8" fill="#24262c"/><rect x="52" y="532" width="40" height="40" rx="6" fill="#32263d"/><path d="M58 555h28m-22-6v12m8-17v22m8-12v7" stroke="#c49bea" stroke-width="2" stroke-linecap="round"/><text x="108" y="547" fill="#f1f1f2" font-size="12" font-weight="600">The Wave Looper</text><text x="108" y="567" fill="#92969e" font-size="10">24 loops · SWF</text>
    <rect x="40" y="595" width="340" height="62" rx="8" fill="#24262c"/><rect x="52" y="606" width="40" height="40" rx="6" fill="#3b3020"/><path d="M58 629h28m-22-6v12m8-17v22m8-12v7" stroke="#e7be64" stroke-width="2" stroke-linecap="round"/><text x="108" y="621" fill="#f1f1f2" font-size="12" font-weight="600">Night Shift Breaks</text><text x="108" y="641" fill="#92969e" font-size="10">11 loops · Audio</text>
    <rect x="40" y="669" width="340" height="62" rx="8" fill="#24262c"/><rect x="52" y="680" width="40" height="40" rx="6" fill="#283527"/><path d="M58 703h28m-22-6v12m8-17v22m8-12v7" stroke="#a3d184" stroke-width="2" stroke-linecap="round"/><text x="108" y="695" fill="#f1f1f2" font-size="12" font-weight="600">Cuts for Days</text><text x="108" y="715" fill="#92969e" font-size="10">6 loops · EXE projector</text>
  </g>
  <text x="48" y="787" fill="#7e838d" font-family="Inter,Arial,sans-serif" font-size="10">Keep your loopers together. Your original source files stay untouched.</text>
  <rect x="400" y="250" width="1020" height="630" fill="#15171b"/>
  <text x="444" y="295" fill="#f3f4f6" font-family="Inter,Arial,sans-serif" font-size="20" font-weight="700">Favorites</text>
  <text x="444" y="319" fill="#90949d" font-family="Inter,Arial,sans-serif" font-size="12">12 loops ready for your next session</text>
  <rect x="1192" y="277" width="186" height="38" rx="7" fill="#25282e" stroke="#3a3d44"/><text x="1212" y="301" fill="#c6c8ce" font-family="Inter,Arial,sans-serif" font-size="11">Filter by BPM</text><path d="m1355 292 5 5 5-5" fill="none" stroke="#8a8f98" stroke-width="1.5"/>
  <rect x="428" y="347" width="964" height="44" rx="7" fill="#202329"/>
  <text x="454" y="375" fill="#9599a1" font-family="Inter,Arial,sans-serif" font-size="10" letter-spacing="1">TRACK</text><text x="1052" y="375" fill="#9599a1" font-family="Inter,Arial,sans-serif" font-size="10" letter-spacing="1">BPM</text><text x="1142" y="375" fill="#9599a1" font-family="Inter,Arial,sans-serif" font-size="10" letter-spacing="1">DURATION</text><text x="1280" y="375" fill="#9599a1" font-family="Inter,Arial,sans-serif" font-size="10" letter-spacing="1">SOURCE</text>
  <g font-family="Inter,Arial,sans-serif">
    <rect x="428" y="403" width="964" height="70" rx="7" fill="#1e2026"/><rect x="445" y="416" width="44" height="44" rx="6" fill="#3a2c23"/><path d="M451 438h32m-24-6v12m8-19v26m8-13v10" stroke="#f59e0b" stroke-width="2" stroke-linecap="round"/><text x="508" y="433" fill="#f1f1f2" font-size="13" font-weight="600">Four Bars to Scratch</text><text x="508" y="453" fill="#8f939c" font-size="10">Scratch Session Vol. 2</text><text x="1052" y="443" fill="#d8d9dc" font-size="12">92</text><text x="1142" y="443" fill="#d8d9dc" font-size="12">00:08</text><text x="1280" y="443" fill="#aeb1b8" font-size="11">MP3</text><text x="1363" y="443" fill="#f59e0b" font-size="16">♥</text>
    <rect x="428" y="483" width="964" height="70" rx="7" fill="#1e2026"/><rect x="445" y="496" width="44" height="44" rx="6" fill="#25353b"/><path d="M451 518h32m-24-6v12m8-19v26m8-13v10" stroke="#67c9cc" stroke-width="2" stroke-linecap="round"/><text x="508" y="513" fill="#f1f1f2" font-size="13" font-weight="600">Break 03</text><text x="508" y="533" fill="#8f939c" font-size="10">Portablist Practice Pack</text><text x="1052" y="523" fill="#d8d9dc" font-size="12">100</text><text x="1142" y="523" fill="#d8d9dc" font-size="12">00:11</text><text x="1280" y="523" fill="#aeb1b8" font-size="11">ADPCM</text><text x="1363" y="523" fill="#f59e0b" font-size="16">♥</text>
    <rect x="428" y="563" width="964" height="70" rx="7" fill="#272a30" stroke="#a66513"/><rect x="445" y="576" width="44" height="44" rx="6" fill="#32263d"/><path d="M451 598h32m-24-6v12m8-19v26m8-13v10" stroke="#c49bea" stroke-width="2" stroke-linecap="round"/><text x="508" y="593" fill="#f1f1f2" font-size="13" font-weight="600">Chop Practice</text><text x="508" y="613" fill="#8f939c" font-size="10">The Wave Looper</text><text x="1052" y="603" fill="#d8d9dc" font-size="12">86</text><text x="1142" y="603" fill="#d8d9dc" font-size="12">00:09</text><text x="1280" y="603" fill="#aeb1b8" font-size="11">MP3</text><text x="1363" y="603" fill="#f59e0b" font-size="16">♥</text>
    <rect x="428" y="643" width="964" height="70" rx="7" fill="#1e2026"/><rect x="445" y="656" width="44" height="44" rx="6" fill="#3b3020"/><path d="M451 678h32m-24-6v12m8-19v26m8-13v10" stroke="#e7be64" stroke-width="2" stroke-linecap="round"/><text x="508" y="673" fill="#f1f1f2" font-size="13" font-weight="600">Pocket Break</text><text x="508" y="693" fill="#8f939c" font-size="10">Night Shift Breaks</text><text x="1052" y="683" fill="#d8d9dc" font-size="12">105</text><text x="1142" y="683" fill="#d8d9dc" font-size="12">00:07</text><text x="1280" y="683" fill="#aeb1b8" font-size="11">WAV</text><text x="1363" y="683" fill="#f59e0b" font-size="16">♥</text>
    <rect x="428" y="723" width="964" height="70" rx="7" fill="#1e2026"/><rect x="445" y="736" width="44" height="44" rx="6" fill="#283527"/><path d="M451 758h32m-24-6v12m8-19v26m8-13v10" stroke="#a3d184" stroke-width="2" stroke-linecap="round"/><text x="508" y="753" fill="#f1f1f2" font-size="13" font-weight="600">Practice Loop 06</text><text x="508" y="773" fill="#8f939c" font-size="10">Cuts for Days</text><text x="1052" y="763" fill="#d8d9dc" font-size="12">112</text><text x="1142" y="763" fill="#d8d9dc" font-size="12">00:10</text><text x="1280" y="763" fill="#aeb1b8" font-size="11">MP3</text><text x="1363" y="763" fill="#f59e0b" font-size="16">♥</text>
  </g>
  <text x="444" y="835" fill="#777c85" font-family="Inter,Arial,sans-serif" font-size="11">Sort by title or BPM · Search your whole collection · Keep a personal favorites crate</text>
</svg>
